#N canvas 362 249 1041 467 10;
#X obj 184 427 noteout;
#X obj 212 17 keyup;
#X floatatom 212 39 5 0 0 0 - - -, f 5;
#X obj 179 359 makenote 60 100;
#X obj 213 65 bng 15 250 50 0 empty empty empty 17 7 0 10 -262144 -1
-1;
#X obj 763 114 list;
#X msg 751 74 64 67 69 71 74 77;
#X obj 781 164 list length;
#X floatatom 781 186 5 0 0 0 - - -, f 5;
#X obj 799 131 bng 15 250 50 0 empty empty empty 17 7 0 10 -262144
-1 -1;
#X obj 201 102 random 5;
#X obj 152 131 moses 1;
#X obj 147 168 bng 15 250 50 0 empty empty empty 17 7 0 10 -262144
-1 -1;
#X obj 188 161 moses 2;
#X obj 188 188 bng 15 250 50 0 empty empty empty 17 7 0 10 -262144
-1 -1;
#X obj 227 220 bng 15 250 50 0 empty empty empty 17 7 0 10 -262144
-1 -1;
#X obj 227 193 moses 3;
#X obj 265 247 bng 15 250 50 0 empty empty empty 17 7 0 10 -262144
-1 -1;
#X obj 265 220 moses 4;
#X obj 309 275 bng 15 250 50 0 empty empty empty 17 7 0 10 -262144
-1 -1;
#X obj 296 248 moses 5;
#X msg 147 188 64;
#X msg 188 208 67;
#X obj 176 318 + 12;
#X msg 227 240 69;
#X msg 265 267 71;
#X msg 309 295 74;
#X text 285 96 Triggers random MIDI notes in Em pentatonic whenever
a key is pressed. Done in a pretty dumb way;
#X connect 1 0 2 0;
#X connect 2 0 4 0;
#X connect 3 0 0 0;
#X connect 3 1 0 1;
#X connect 4 0 10 0;
#X connect 6 0 5 0;
#X connect 7 0 8 0;
#X connect 9 0 7 0;
#X connect 10 0 11 0;
#X connect 11 0 12 0;
#X connect 11 1 13 0;
#X connect 12 0 21 0;
#X connect 13 0 14 0;
#X connect 13 1 16 0;
#X connect 14 0 22 0;
#X connect 15 0 24 0;
#X connect 16 0 15 0;
#X connect 16 1 18 0;
#X connect 17 0 25 0;
#X connect 18 0 17 0;
#X connect 18 1 20 0;
#X connect 19 0 26 0;
#X connect 20 0 19 0;
#X connect 21 0 23 0;
#X connect 22 0 23 0;
#X connect 23 0 3 0;
#X connect 24 0 23 0;
#X connect 25 0 23 0;
#X connect 26 0 23 0;
